<?xml version="1.0" standalone="no"?>
<!DOCTYPE svg PUBLIC "-//W3C//DTD SVG 20010904//EN"
 "http://www.w3.org/TR/2001/REC-SVG-20010904/DTD/svg10.dtd">
<svg version="1.0" xmlns="http://www.w3.org/2000/svg"
 width="250.000000pt" height="208.000000pt" viewBox="0 0 250.000000 208.000000"
 preserveAspectRatio="xMidYMid meet">

<g transform="translate(0.000000,208.000000) scale(0.100000,-0.100000)"
fill="#000000" stroke="none">
<path d="M1995 1716 c-16 -8 -39 -21 -50 -30 -19 -15 -19 -15 11 -10 62 12
133 -44 170 -131 8 -19 16 -35 19 -35 2 0 23 7 46 17 l41 16 -4 53 c-5 62 -24
88 -83 115 -47 22 -108 24 -150 5z"/>
<path d="M1730 1451 c0 -30 14 -50 88 -130 l43 -46 -25 42 c-42 68 -31 83 25
36 l32 -27 -16 30 c-25 49 -102 124 -125 124 -18 0 -22 -6 -22 -29z"/>
<path d="M1495 1373 c-71 -37 -105 -93 -140 -228 -41 -160 4 -273 124 -314
114 -38 306 21 427 132 l57 52 -39 5 c-37 5 -41 3 -94 -54 -81 -88 -136 -104
-216 -66 -117 57 -196 300 -136 417 12 23 32 49 44 57 29 20 12 20 -27 -1z"/>
<path d="M2116 1315 c-21 -13 -56 -26 -78 -29 -36 -6 -39 -9 -36 -34 3 -23 7
-27 31 -25 35 2 86 40 110 82 10 17 17 31 15 30 -2 0 -20 -11 -42 -24z"/>
<path d="M290 900 l0 -170 45 0 44 0 3 106 3 106 55 -106 55 -106 63 0 62 0 0
170 0 170 -45 0 -45 0 0 -112 -1 -113 -54 113 -54 112 -65 0 -66 0 0 -170z"/>
<path d="M730 899 l0 -170 48 3 47 3 3 168 2 167 -50 0 -50 0 0 -171z"/>
<path d="M1003 1053 c-3 -10 -32 -84 -65 -166 -32 -81 -58 -149 -58 -152 0 -3
22 -5 49 -5 48 0 50 1 61 35 l12 35 67 0 68 0 9 -32 c9 -31 13 -33 57 -36 56
-4 57 0 23 84 -13 32 -40 103 -61 157 l-37 97 -59 0 c-48 0 -61 -4 -66 -17z
m91 -137 c9 -27 16 -51 16 -53 0 -2 -18 -3 -40 -3 -22 0 -40 3 -40 7 0 21 35
112 41 106 3 -5 14 -30 23 -57z"/>
<path d="M1480 550 c0 -5 -12 -10 -27 -10 -16 0 -23 -4 -18 -8 6 -4 16 -19 22
-34 19 -42 73 -32 73 13 0 10 6 20 13 22 6 3 0 6 -15 6 -16 1 -28 6 -28 11 0
6 -4 10 -10 10 -5 0 -10 -4 -10 -10z m25 -39 c7 -12 -12 -24 -25 -16 -11 7 -4
25 10 25 5 0 11 -4 15 -9z"/>
<path d="M310 540 c0 -5 -9 -10 -20 -10 -17 0 -19 -5 -13 -32 7 -41 20 -58 44
-58 25 0 51 30 46 51 -3 11 -1 19 4 19 5 0 9 5 9 10 0 6 -11 10 -25 10 -14 0
-25 5 -25 10 0 6 -4 10 -10 10 -5 0 -10 -4 -10 -10z m30 -55 c0 -25 -23 -35
-35 -15 -10 16 2 40 20 40 9 0 15 -9 15 -25z"/>
<path d="M400 485 c0 -37 4 -65 10 -65 6 0 10 14 10 30 0 20 5 30 15 30 8 0
15 5 15 10 0 6 -7 10 -15 10 -9 0 -15 9 -15 25 0 14 -4 25 -10 25 -6 0 -10
-28 -10 -65z"/>
<path d="M480 540 c0 -5 25 -10 55 -10 52 0 55 -1 55 -25 0 -24 -2 -25 -65
-25 -37 0 -65 -4 -65 -10 0 -5 16 -10 35 -10 24 0 35 -5 35 -15 0 -9 -9 -15
-25 -15 -14 0 -25 -4 -25 -10 0 -5 25 -10 55 -10 52 0 55 -1 55 -25 0 -14 5
-25 10 -25 6 0 10 16 10 35 0 31 -3 35 -25 35 -16 0 -25 6 -25 15 0 10 11 15
35 15 19 0 35 5 35 10 0 6 -4 10 -10 10 -5 0 -10 16 -10 35 l0 35 -65 0 c-37
0 -65 -4 -65 -10z"/>
<path d="M790 530 c0 -13 -7 -20 -20 -20 -11 0 -20 -4 -20 -10 0 -5 9 -10 20
-10 13 0 20 -7 20 -20 0 -11 5 -20 10 -20 6 0 10 23 10 50 0 28 -4 50 -10 50
-5 0 -10 -9 -10 -20z"/>
<path d="M1080 535 c0 -8 -8 -15 -18 -15 -15 0 -18 -6 -14 -31 2 -17 11 -33
18 -36 24 -9 16 -33 -11 -33 -14 0 -25 -5 -25 -11 0 -8 21 -10 65 -7 62 4 65
3 65 -19 0 -13 5 -23 10 -23 6 0 10 25 10 55 0 42 3 55 15 55 8 0 15 5 15 10
0 6 -7 10 -15 10 -10 0 -15 10 -15 30 0 17 -4 30 -10 30 -6 0 -10 -28 -10 -65
l0 -65 -30 0 c-31 0 -42 23 -16 33 7 3 16 19 18 36 4 25 1 31 -14 31 -10 0
-18 7 -18 15 0 8 -4 15 -10 15 -5 0 -10 -7 -10 -15z m28 -52 c-2 -10 -10 -18
-18 -18 -8 0 -16 8 -18 18 -2 12 3 17 18 17 15 0 20 -5 18 -17z"/>
<path d="M1360 480 c0 -40 4 -70 10 -70 6 0 10 30 10 70 0 40 -4 70 -10 70 -6
0 -10 -30 -10 -70z"/>
<path d="M1614 536 c-11 -28 1 -51 27 -54 31 -4 53 20 44 48 -8 24 -62 29 -71
6z m53 -12 c8 -21 -13 -42 -28 -27 -13 13 -5 43 11 43 6 0 13 -7 17 -16z"/>
<path d="M1730 495 c0 -48 -2 -55 -20 -55 -11 0 -20 -4 -20 -10 0 -5 6 -10 14
-10 8 0 21 -3 30 -6 14 -5 16 4 16 65 0 41 -4 71 -10 71 -5 0 -10 -25 -10 -55z"/>
<path d="M673 533 c24 -6 21 -39 -5 -57 l-22 -16 21 0 c12 0 26 7 31 16 8 14
10 14 21 0 8 -9 20 -16 29 -16 12 0 11 5 -6 23 -28 30 -28 44 1 50 12 2 -3 4
-33 4 -30 1 -47 -1 -37 -4z"/>
<path d="M860 495 l0 -46 63 3 62 3 3 43 c3 41 -10 57 -22 27 -3 -10 -19 -15
-46 -15 -29 0 -40 4 -40 15 0 8 -4 15 -10 15 -5 0 -10 -20 -10 -45z m108 -12
c2 -9 -10 -13 -42 -13 -35 0 -46 4 -46 16 0 12 9 14 42 12 23 -2 43 -9 46 -15z"/>
<path d="M1248 530 c27 -12 28 -20 1 -54 -25 -32 -18 -47 11 -21 18 16 20 16
35 1 16 -15 35 -22 35 -11 0 3 -9 14 -20 25 -27 27 -26 57 3 63 12 2 -3 5 -33
5 -42 1 -50 -1 -32 -8z"/>
<path d="M1590 460 c0 -5 11 -10 25 -10 16 0 25 -6 25 -15 0 -8 5 -15 10 -15
6 0 10 7 10 15 0 9 9 15 25 15 14 0 25 5 25 10 0 6 -27 10 -60 10 -33 0 -60
-4 -60 -10z"/>
<path d="M1405 450 c3 -5 42 -10 85 -10 43 0 82 5 85 10 4 6 -27 10 -85 10
-58 0 -89 -4 -85 -10z"/>
<path d="M720 425 c-27 -33 15 -81 58 -64 27 10 31 63 6 73 -26 10 -51 7 -64
-9z m55 -26 c0 -15 -7 -25 -18 -27 -22 -4 -33 24 -17 43 18 21 35 13 35 -16z"/>
<path d="M910 415 c0 -11 -11 -15 -40 -15 -22 0 -40 -4 -40 -10 0 -6 37 -10
90 -10 53 0 90 4 90 10 0 6 -18 10 -40 10 -29 0 -40 4 -40 15 0 8 -4 15 -10
15 -5 0 -10 -7 -10 -15z"/>
<path d="M1270 395 l0 -35 55 0 c30 0 55 5 55 10 0 6 -20 10 -45 10 -41 0 -45
2 -45 25 0 14 -4 25 -10 25 -5 0 -10 -16 -10 -35z"/>
<path d="M1454 416 c-13 -33 0 -51 36 -51 32 0 35 2 35 30 0 27 -4 30 -33 33
-22 2 -34 -2 -38 -12z m53 -12 c8 -21 -13 -42 -28 -27 -13 13 -5 43 11 43 6 0
13 -7 17 -16z"/>
<path d="M310 390 l0 -30 60 0 c33 0 60 4 60 10 0 6 -22 10 -50 10 -43 0 -50
3 -50 20 0 11 -4 20 -10 20 -5 0 -10 -13 -10 -30z"/>
<path d="M1632 388 c3 -20 10 -23 61 -26 35 -2 57 1 57 8 0 5 -20 10 -45 10
-33 0 -45 4 -45 15 0 8 -7 15 -16 15 -10 0 -14 -7 -12 -22z"/>
</g>
</svg>
