<svg xmlns="http://www.w3.org/2000/svg" width="1180.9987pt" height="225pt" viewBox="0 0 1180.9987 225"><path fill="#a52" d="M46.684 87.45c0 7.616-6.174 13.788-13.79 13.788-7.613 0-13.782-6.172-13.782-13.787 0-7.613 6.17-13.785 13.782-13.785 7.616 0 13.79 6.172 13.79 13.785"/><path fill="#d08216" d="M205.65 87.45c0 7.616-6.179 13.788-13.795 13.788-7.607 0-13.781-6.172-13.781-13.787 0-7.613 6.174-13.785 13.781-13.785 7.616 0 13.795 6.172 13.795 13.785"/><path fill="#a52" d="M74.285 67.31v38.996s0 4.22-7.178 4.22c-7.177 0-42.237-.417-42.237-.417s-8.022-1.268-8.022 9.286c0 10.562-.422 44.775-.422 44.775s.316 9.768.316 11.031c0 1.267 1.37 4.595 8.128 4.595l5.914-.424 42.24-.417s5.067-.85 4.643 5.49c-.42 6.335-.42 11.034-.42 11.034s.632 3.96-5.492 3.745c-8.022-.27-49.42-1.269-49.42-1.269l-5.277.218S3.334 197.113 4.6 211.472c1.266 14.365-.847 13.519 18.159 13.519 19.008 0 66.31-2.113 66.31-2.113l4.807-.322s6.496.322 6.65-8.55c.161-8.908-.632-49.89-.632-49.89s1.584-9.027-8.712-8.815c-11.85.239-41.019.26-41.019.26s-7.127 2.53-6.495-10.456l-.21-9.232s-.266-3.278 7.175-3.379c8.882-.13 45.141-.374 45.141-.374s5.07-.157 4.279-8.072V69.892s-20.083.072-25.77-2.583"/><path fill="#d08216" d="M150.571 67.31v38.996s0 4.22 7.178 4.22c7.18 0 42.237-.417 42.237-.417s8.022-1.268 8.022 9.286c0 10.562.424 44.775.424 44.775s-.316 9.768-.316 11.031c0 1.267-1.372 4.595-8.13 4.595l-5.914-.424-42.237-.417s-5.07-.85-4.64 5.49c.419 6.335.419 11.034.419 11.034s-.637 3.96 5.487 3.745c8.021-.27 49.42-1.269 49.42-1.269l5.28.218s13.72-1.06 12.46 13.299c-1.27 14.365.84 13.519-18.162 13.519-19.009 0-66.31-2.113-66.31-2.113l-4.808-.322s-6.495.322-6.654-8.55c-.154-8.908.637-49.89.637-49.89s-1.585-9.027 8.709-8.815c11.852.239 41.022.26 41.022.26s7.127 2.53 6.495-10.456l.21-9.232s.265-3.278-7.178-3.379c-8.882-.13-45.139-.374-45.139-.374s-5.07-.157-4.276-8.072V69.892s20.084.072 25.764-2.583"/><path fill="#6c7f36" d="M112.025 16.468c-34.847 0-64.2-4.292-96.558-12.337L0 48.154C35.872 57.071 73.39 61.83 112.025 61.83c38.633 0 76.148-4.76 112.025-13.676L208.583 4.131c-32.358 8.045-61.71 12.337-96.558 12.337"/><path fill="#fff" d="M45.868 38.417c-.465-.606-1.041-.964-1.723-1.089-.67-.12-1.32.03-1.943.438-.616.412-.98.927-1.086 1.537-.111.608.05 1.216.488 1.816.441.634.999 1.009 1.665 1.125.669.12 1.335-.034 1.996-.47.632-.427 1.003-.942 1.11-1.536.103-.595-.064-1.205-.507-1.821m.814 5.41c-1.22.87-2.53 1.18-3.928.936-1.439-.26-2.57-1.006-3.385-2.237-.785-1.158-1.067-2.355-.844-3.613.218-1.21.927-2.24 2.127-3.084 1.237-.871 2.521-1.184 3.864-.945 1.498.265 2.652 1.019 3.467 2.253.743 1.144 1.006 2.341.778 3.597-.218 1.245-.913 2.272-2.079 3.092m6.273-7.159c-.279.048-.72-.092-1.322-.422-.353-.19-.93-.392-1.715-.613a52.834 52.834 0 0 0-2.612-.629 52.262 52.262 0 0 0-3.09-.6 58.021 58.021 0 0 0-3.416-.42 46.514 46.514 0 0 0-3.092-.196 11.165 11.165 0 0 0-1.497.043c-.916.106-1.47-.072-1.662-.534-.14-.371-.05-.876.27-1.515.295-.566.656-.847 1.078-.852-.15.007.15.077.906.212.586.085 1.632.202 3.137.345 1.532.162 2.856.318 3.971.467.032-.183.059-.385.082-.602.077-.428.139-.736.189-.937-1.115-.136-1.808-.213-2.076-.226-.815-.05-1.41 0-1.78.157-.521.207-.911.265-1.18.167-.215-.07-.44-.282-.676-.643-.16-.355-.205-.69-.136-.992.045-.26.2-.526.454-.8.191-.137.31-.501.356-1.098.034-.624-.043-1.16-.234-1.6-.212-.327-.308-.625-.29-.909.02-.345.2-.722.542-1.138.231-.271.507-.43.826-.462.324-.04.65.024.98.193.302.162.61.282.926.353.117.022.504.085 1.16.186.515.072 2.346.372 5.494.882 2.177.358 3.584.53 4.234.517.677-.008 1.091.117 1.24.364.167.233.064.605-.308 1.107-.51.73-.934 1.16-1.287 1.284-.258.083-.643.022-1.16-.18-.858-.342-2.381-.725-4.569-1.15-2.152-.41-3.79-.658-4.916-.73.03.26.003.609-.074 1.052-.093.43-.2.764-.316 1.014 2.02.297 3.64.544 4.863.748 1.739.28 3.51.574 5.312.898.889.159 1.35.25 1.396.27.286.162.239.55-.14 1.16-.38.613-.702.985-.962 1.11-.25.127-.59.106-1.022-.088-.39-.162-.995-.342-1.818-.539.953.218.2.072-2.262-.446-.026.231-.098.558-.22.98-.069.22-.135.42-.194.581.67.117 1.723.313 3.162.587 1.436.268 2.598.483 3.49.645.871.154 1.439.303 1.7.443.461.26.482.648.058 1.173-.707.855-1.31 1.314-1.8 1.383M68.88 30.889c-2.044-.213-3.687-.276-4.932-.186-.008.31-.016.504-.026.584-.006.167-.014.34-.016.515 1.014-.021 2.168.029 3.464.151 1.13.117 2.548.308 4.244.55.63.098 1.091.19 1.383.286.292.099.454.024.483-.223.032-.25.064-.483.104-.698.016-.106.026-.188.034-.252-1.29-.295-2.87-.536-4.738-.727m6.225 4.733c-.367.071-.805.01-1.32-.178-.467-.197-1.409-.42-2.821-.667a73.05 73.05 0 0 0-3.95-.586c-1.234-.146-2.044-.22-2.429-.22-.507.005-1.085.119-1.736.334-.512.178-.9.239-1.16.188-.395-.074-.671-.363-.833-.87-.101-.292-.067-.645.103-1.043.252-.643.377-.953.375-.924.164-.903.254-1.77.265-2.599 0 .114-.019-.48-.058-1.765-.022-.568.13-.966.456-1.197.258-.186.619-.25 1.073-.2.674.08 1.077.325 1.205.73.05.213.037.765-.04 1.665 1.502-.01 3.267.109 5.293.348.908.125 2.354.345 4.342.655.061-.634.13-1.037.213-1.218.087-.236.268-.388.547-.449.732-.18 1.279-.154 1.64.08.3.22.409.573.321 1.046-.167.78-.313 1.82-.44 3.116-.061.542-.146 1.465-.258 2.769-.024.576-.287.908-.788.985m1.364 4.297c-.268.096-.624.058-1.08-.127-.568-.237-1.473-.515-2.71-.836a32.682 32.682 0 0 0-3.711-.722c-.027.196-.08.472-.168.822-.084.353.02.545.314.576.716.104 1.35.186 1.91.253.925.092 1.429.143 1.5.154.542.082.975.122 1.304.122.33 0 .613.164.86.49.406.423.613.81.618 1.153-.002.143-.09.443-.265.91-.117.473-.202 1.02-.263 1.649-.06.629-.109 1.128-.156 1.5-.08.663-.197 1.077-.35 1.247-.17.202-.529.313-1.068.342-.746.022-1.178-.17-1.293-.578-.031-.112 0-.555.096-1.33.053-.475.117-1.07.186-1.781.056-.714.09-1.134.103-1.258-1.146-.231-2.516-.423-4.103-.584-1.423-.154-2.533-.24-3.321-.25-1.293 0-2.224.01-2.795.037-.63.037-1.118.104-1.473.202-.937.138-1.532.037-1.774-.305-.177-.24-.183-.64-.013-1.2.205-.714.518-1.16.945-1.346.234-.098.563-.117.988-.066.438.066 1.274.111 2.505.13 1.277.029 2.14.069 2.58.12.306.036.436-.035.39-.224-.042-.183-.04-.517.022-.995-1.696-.01-3.345-.05-4.943-.117-1.112-.04-1.775-.05-1.985-.024-1.096.09-1.733-.058-1.911-.44-.12-.269-.024-.741.284-1.423.363-.582.73-.908 1.093-.977l.86.103c.797.064 2.079.141 3.847.234 1.767.096 3.456.252 5.067.478.836.082 2.118.26 3.84.525 1.583.237 2.889.399 3.916.491.826.099 1.386.253 1.691.46.297.225.34.515.117.88-.608.98-1.16 1.551-1.654 1.705M101.61 37.8c-.274.36-.587.525-.943.504-.34-.021-.775-.125-1.314-.316-.303-.108-.462-.077-.473.09-.366 4.86-.552 7.91-.557 9.156-.008 1.242-.27 1.988-.788 2.222-.388.238-.783.337-1.195.276-.44-.054-.65-.263-.629-.619l.07-1.141.081-1.354c.3-5.014.529-8.654.685-10.907.16-2.262.26-3.746.3-4.465.048-.775.183-1.311.409-1.608.26-.343.669-.433 1.24-.277.493.136.82.393.974.757.143.324.154.767.032 1.335-.088.483-.162.974-.223 1.487-.085.68-.16 1.529-.218 2.556-.01.156.204.202.648.133.438-.067.905-.12 1.393-.152.775-.077 1.216.006 1.32.244.063.144.005.436-.186.88-.274.602-.483 1.005-.627 1.199m-11.655-4.133c-.65-.775-1.45-1.187-2.392-1.245-.93-.056-1.763.263-2.5.948-.72.658-1.107 1.446-1.163 2.362-.05.873.239 1.688.873 2.46.664.821 1.455 1.256 2.365 1.31.93.058 1.773-.282 2.527-1.017.722-.688 1.11-1.468 1.16-2.336.056-.919-.233-1.744-.87-2.482m1.345 6.811c-1.255 1.205-2.726 1.752-4.409 1.651-1.667-.1-3.036-.817-4.111-2.16-1.033-1.277-1.503-2.727-1.404-4.34.092-1.537.724-2.883 1.905-4.025 1.243-1.22 2.69-1.78 4.343-1.68 1.664.101 3.058.831 4.175 2.19 1.065 1.298 1.55 2.705 1.46 4.226-.098 1.603-.75 2.98-1.959 4.138M123.576 33.118a51.879 51.879 0 0 0-.061 2.846c.002 2.567.02 3.634.047 3.198-.042.749-.27 1.322-.684 1.734a1.565 1.565 0 0 1-1.152.462c-.473.015-.71-.162-.71-.537l-.002-1.563v-.672c-.55.003-1 .014-1.354.048-.414.045-.82.117-1.218.21-.618.202-1.096.257-1.417.167-.401-.096-.592-.4-.582-.91.045-.701.17-1.221.377-1.567.234-.384.56-.56.977-.51 1.311.104 1.858.15 1.638.136.738.045 1.277.03 1.619-.05-.003-.093-.003-.3-.003-.63 0-.313.006-.618.024-.91-.608.003-1.006.008-1.2.027-.459.016-.849.077-1.173.186-.711.252-1.242.342-1.595.28-.46-.073-.68-.384-.666-.928.042-.794.159-1.333.353-1.614.217-.342.631-.512 1.242-.512 1.253.087 1.77.13 1.55.116.635.046 1.107.035 1.418-.029a4.85 4.85 0 0 0 .02-.486 20.756 20.756 0 0 1-.023-.47c0-.575.12-.995.353-1.26.25-.279.642-.377 1.173-.282.433.061.743.255.937.584.189.356.258.858.2 1.516-.102 1.707-.13 2.185-.088 1.42m-.07 12.996c.03.826.046 1.428.046 1.8 0 .775-.04 1.253-.13 1.423-.117.186-.451.313-.998.374-.722.08-1.16-.027-1.306-.324-.043-.093-.07-.472-.07-1.144-.002-.403.043-1.375.13-2.914.043-.845-.002-1.261-.135-1.261-1.39-.075-2.365-.114-2.927-.114-.576 0-1.405.042-2.482.122a33.64 33.64 0 0 0-3.148.355c-1.078.173-1.898.337-2.461.489-.796.236-1.314.23-1.55-.021-.207-.2-.255-.638-.136-1.304.133-.637.34-1.054.619-1.24.178-.122.464-.183.865-.183.146 0 1.168-.098 3.058-.286 1.715-.173 3.045-.263 3.992-.263.974-.003 1.654.008 2.039.021a18.8 18.8 0 0 1 1.84.138c.249.024.544-.008.889-.117.337-.108.743.024 1.218.42.414.356.658.65.733.884.04.122.04.403-.022.839a16.276 16.276 0 0 0-.063 2.306m-10.549-12.632c-.563-.57-1.258-.86-2.084-.858-.828 0-1.507.292-2.038.868a2.65 2.65 0 0 0-.73 1.867c0 .745.25 1.393.735 1.937.53.59 1.21.882 2.039.882.828 0 1.523-.298 2.083-.887.534-.563.797-1.21.797-1.946-.003-.711-.268-1.335-.802-1.863m1.757 5.481c-1.014 1.065-2.31 1.593-3.875 1.596-1.609 0-2.904-.529-3.881-1.585-.918-.961-1.378-2.126-1.38-3.496 0-1.37.477-2.556 1.438-3.573 1.017-1.056 2.286-1.59 3.81-1.593 1.579-.002 2.874.526 3.88 1.582.948.996 1.42 2.185 1.423 3.57.003 1.354-.47 2.522-1.415 3.5M148.571 36.43c-.223.388-.515.595-.87.62-.338.023-.786-.027-1.341-.15-.318-.068-.47-.015-.457.152.25 4.863.452 7.913.6 9.152.149 1.237-.018 2.007-.504 2.305-.348.284-.733.432-1.147.427-.443-.005-.68-.183-.706-.539l-.074-1.144-.088-1.348c-.334-5.01-.568-8.651-.698-10.913a685.298 685.298 0 0 0-.263-4.46c-.053-.78.016-1.326.202-1.653.21-.366.608-.512 1.192-.43.507.077.863.29 1.064.634.184.298.25.741.2 1.32-.027.485-.038.987-.035 1.497.003.687.037 1.542.106 2.564.01.157.231.175.661.053.428-.125.884-.23 1.365-.326.756-.176 1.202-.15 1.34.071.08.14.056.436-.077.897-.194.637-.35 1.06-.47 1.272m-7.329 6.36c-.069.297-.347.573-.836.825-.411.218-.833.136-1.26-.241-.311-.276-.635-.735-.956-1.386-.908-1.81-1.521-3.042-1.845-3.69-.69-1.42-1.195-2.526-1.51-3.315-.11-.27-.216-.387-.314-.35-.058.034-.138.164-.239.387-.456.998-.99 2.381-1.61 4.155-.718 1.953-1.26 3.37-1.628 4.27-.268.643-.624.961-1.07.961-.294.003-.682-.148-1.162-.459-.372-.257-.529-.581-.468-.98.022-.153.16-.514.42-1.072.926-2.06 1.802-4.149 2.625-6.259.881-2.285 1.311-3.62 1.287-3.995-.045-.663.104-1.141.438-1.428.24-.202.632-.334 1.176-.385.619-.055 1.052-.005 1.298.149.383.223.603.749.659 1.566.029.393.645 1.752 1.852 4.088 1.206 2.336 2.105 4.133 2.692 5.386.396.799.542 1.39.451 1.773M169.746 29.191c.085.95.255 2.458.51 4.523.873 6.904 1.266 9.914 1.178 9.046.127 1.261.05 2.076-.223 2.461-.332.313-.685.494-1.067.544-.422.061-.66-.095-.711-.467l-.16-1.152-.183-1.322-.626-4.573-.582-4.21a7.623 7.623 0 0 1-1.24.164c-.395.008-.573.149-.535.412.86 7.013 1.218 9.834 1.075 8.47.122 1.226.06 2.012-.191 2.36-.356.332-.725.539-1.1.623-.437.077-.682-.074-.732-.445l-.16-1.152-.185-1.365-1.45-10.54-.597-4.349c-.106-.764-.093-1.295.048-1.587.18-.318.563-.46 1.15-.411.605.042.979.17 1.128.387.111.157.185.574.22 1.264.019.467.056.955.114 1.465.064.7.157 1.486.279 2.368.026.188.19.263.501.233-.058.01.39-.082 1.349-.281l-.16-1.176-.392-2.843c-.106-.754-.08-1.274.074-1.563.154-.306.52-.452 1.104-.436.616.011 1.017.168 1.206.468.138.22.215.69.241 1.404.003.459.04 1.016.117 1.68m-7.878.634c-.208.237-.526.319-.95.253a6.832 6.832 0 0 0-1.174-.054c.316-.008-.048.022-1.08.107.496 1.011 1.348 2.654 2.556 4.921 1.12 2.073 1.818 3.414 2.094 4 .558 1.23.866 1.996.921 2.299.067.372-.069.693-.403.974-.491.427-.91.59-1.253.48-.3-.1-.563-.392-.794-.88-.342-.755-1.075-2.233-2.198-4.431-1.006-1.985-1.637-3.284-1.903-3.91-.698 3.284-1.163 5.5-1.388 6.644-.231 1.147-.502 2.121-.81 2.917-.25.677-.748.91-1.492.698-.743-.196-1.04-.613-.889-1.242.722-2.88 1.242-5.017 1.558-6.408.563-2.434.914-4.329 1.054-5.683-.804.125-1.32.213-1.553.263-.201.061-.629.194-1.284.414-.444.151-.794.143-1.054-.024-.361-.217-.465-.703-.313-1.462.122-.63.3-1.01.536-1.136l.881-.125c.948-.125 2.195-.292 3.732-.486a92.08 92.08 0 0 0 3.687-.528c1.102-.154 1.71-.213 1.832-.183.265.069.337.443.22 1.099-.135.743-.316 1.237-.533 1.483M194.245 25.88c-.138.285-.385.463-.746.542-.29.067-.764.098-1.428.114-.345.011-.5.096-.465.271.215 1.351.505 2.766.858 4.237.353 1.478.411 2.428.167 2.845-.218.382-.573.637-1.054.775-.501.138-.785.043-.86-.292l-.25-1.162-.283-1.328-.95-4.4-.9-4.2c-.162-.743-.194-1.221-.104-1.43.13-.317.55-.5 1.26-.56.63-.038 1.025.052 1.195.27.128.165.202.563.231 1.192.016.265.048.528.104.785l.172.802c.056.258.3.268.74.032a11.15 11.15 0 0 1 1.187-.563c.47-.199.794-.278.97-.239.26.093.376.417.344.977-.013.645-.077 1.086-.188 1.333m-.048 14.328c-.23.258-.56.364-.98.306-1.619-.141-3.299-.115-5.037.08-1.567.18-3.053.485-4.455.912-.674.226-1.146.39-1.412.494-.472.202-.844.414-1.11.642-.421.348-.891.282-1.398-.199-.51-.462-.674-.974-.494-1.54.173-.53.183-1.218.032-2.06-.064-.37-.212-.925-.449-1.669-.228-.716-.223-1.245.022-1.58.19-.251.493-.384.91-.413 1.064-.035 1.66.576 1.779 1.837.122 1.263.233 2.078.342 2.434a48.376 48.376 0 0 1 3.1-.974 37.27 37.27 0 0 1 2.535-.547c.603-.08 1.773-.22 3.515-.417 1.37-.175 2.155-.276 2.357-.318.812-.178 1.359-.192 1.646-.046.294.162.329.505.108 1.028-.376 1.05-.716 1.73-1.01 2.03m-7.048-7.459c-.186.12-.706.154-1.566.099-.507-.032-1.38.058-2.615.276-1.134.215-1.97.408-2.503.586-.592.22-.985.388-1.19.497a8.91 8.91 0 0 0-.75.517c-.247.178-.526.191-.831.035-.306-.157-.55-.417-.733-.77-.138-.292-.165-.674-.088-1.157.112-.608.107-1.267-.016-1.973-.193-.9-.384-1.542-.573-1.932-.239-.472-.547-.738-.924-.804-.36-.067-.581-.287-.666-.667-.069-.257-.061-.618.019-1.077.082-.452.236-.77.45-.959.261-.212.68-.353 1.272-.416.831-.085 2.233-.337 4.213-.76 2.007-.432 3.283-.761 3.825-.99.727-.27 1.205-.297 1.43-.092.19.18.197.56.017 1.138-.229.831-.457 1.349-.685 1.558-.189.186-.55.287-1.089.306-.453.002-.865.018-1.236.05-.523.037-.953.082-1.28.157-.637.138-1.226.278-1.768.427-.586.173-1.062.343-1.438.5.225.554.424 1.263.594 2.115.143.748.242 1.484.292 2.206-.045.01 1.062-.218 3.318-.693 1.548-.332 2.816-.659 3.807-.985.801-.263 1.292-.292 1.475-.077.16.173.141.624-.047 1.348-.207.871-.446 1.386-.714 1.537"/><path fill="#6c7f36" d="M22.1 0a7.281 7.281 0 0 0-7.279 7.278v9.78a7.279 7.279 0 1 0 14.557 0S23.504 13.513 22.099 0M202.07.083a7.278 7.278 0 0 1 7.28 7.276v9.779a7.284 7.284 0 0 1-7.28 7.28 7.284 7.284 0 0 1-7.28-7.28s5.878-3.544 7.28-17.055"/><path fill="#221815" d="M283.028 210.602v-33.658h4.128l16.03 26.529v-26.529h3.867v33.658h-4.151l-16-26.488v26.488zM316.87 194.276c0 4.15 1.011 7.361 3.042 9.65 2.03 2.29 4.5 3.431 7.403 3.431 2.97 0 5.463-1.157 7.472-3.464 2.015-2.312 3.021-5.707 3.021-10.187 0-2.894-.52-5.474-1.55-7.757a9.8 9.8 0 0 0-3.61-4.188 9.43 9.43 0 0 0-5.256-1.572c-3.06 0-5.58 1.147-7.554 3.443-1.98 2.294-2.968 5.843-2.968 10.644m-4.136-.055c0-5.737 1.396-10.148 4.192-13.227 2.792-3.085 6.272-4.624 10.44-4.624 2.691 0 5.144.69 7.363 2.062 2.219 1.38 3.976 3.382 5.272 6.004 1.295 2.623 1.943 5.745 1.943 9.373 0 4.988-1.253 9.047-3.76 12.179-2.76 3.464-6.372 5.19-10.845 5.19-4.505 0-8.128-1.774-10.87-5.326-2.492-3.209-3.735-7.087-3.735-11.631M351.08 191.762h8.693c1.903 0 3.344-.207 4.326-.621a5.06 5.06 0 0 0 2.342-1.946c.576-.886.865-1.914.865-3.09 0-1.69-.55-3.023-1.654-3.992-1.104-.963-2.737-1.452-4.905-1.452h-9.668zm-4.033 18.841v-33.658h13.53c2.827 0 4.91.31 6.26.937 1.34.629 2.446 1.67 3.306 3.127.866 1.457 1.301 3.148 1.301 5.07 0 2.535-.732 4.59-2.198 6.166-1.468 1.564-3.6 2.57-6.392 2.997 1.123.626 1.986 1.263 2.57 1.906a23.985 23.985 0 0 1 3.185 4.297l5.344 9.158h-5.081l-4.09-6.989c-1.59-2.731-2.785-4.579-3.584-5.542-.796-.959-1.577-1.61-2.325-1.94-.749-.333-1.8-.503-3.143-.503h-4.65v14.974zM384.866 210.602v-29.681h-10.052v-3.977h24.184v3.977h-10.102v29.681zM403.097 210.602v-33.658h4.032v13.822h15.858v-13.822h4.032v33.658h-4.032v-15.86h-15.858v15.86zM433.9 210.602v-33.658h22.04v3.977h-18.007v10.262h16.908v3.981h-16.908v11.462h18.737v3.976zM467.62 196.78h10.453l-3.195-9.322c-.988-2.862-1.71-5.184-2.166-6.979a45.162 45.162 0 0 1-1.686 6.43zm-8.704 13.822 11.736-33.658h4.324l12.468 33.658h-4.616l-3.512-10.209h-12.869l-3.307 10.209zM489.322 199.715l3.77-.31c.201 1.844.663 3.285 1.38 4.318.724 1.03 1.752 1.86 3.092 2.482 1.333.634 2.843.945 4.52.945 2.408 0 4.274-.528 5.604-1.587 1.333-1.062 1.994-2.437 1.994-4.128 0-.995-.24-1.856-.722-2.596-.483-.735-1.213-1.343-2.182-1.821-.972-.47-3.08-1.139-6.31-2.004-2.88-.778-4.924-1.556-6.142-2.333-1.219-.783-2.164-1.774-2.84-2.973-.675-1.203-1.012-2.56-1.012-4.075 0-2.72.974-4.945 2.923-6.67 1.948-1.729 4.576-2.594 7.883-2.594 2.267 0 4.258.404 5.96 1.208 1.706.81 3.028 1.964 3.97 3.47.94 1.502 1.442 3.28 1.508 5.319l-3.872.316c-.202-2.17-.932-3.775-2.177-4.818-1.25-1.046-3.002-1.569-5.267-1.569-2.29 0-4.042.46-5.247 1.388-1.208.924-1.805 2.116-1.805 3.59 0 1.356.438 2.41 1.319 3.16.879.746 2.861 1.503 5.94 2.27 3.01.76 5.124 1.412 6.347 1.967 1.856.86 3.265 1.99 4.22 3.39.956 1.393 1.432 3.068 1.432 5.009 0 1.927-.497 3.679-1.495 5.26-1 1.583-2.357 2.785-4.074 3.616-1.72.818-3.786 1.232-6.206 1.232-3.775 0-6.78-1.025-9.023-3.09-2.24-2.057-3.408-4.852-3.488-8.372M526.9 210.602v-29.681h-10.055v-3.977h24.188v3.977h-10.098v29.681zM561.6 196.78h10.453l-3.19-9.322c-.99-2.862-1.716-5.184-2.177-6.979a44.418 44.418 0 0 1-1.675 6.43zm-8.704 13.822 11.738-33.658h4.326l12.466 33.658h-4.616l-3.515-10.209H560.43l-3.31 10.209zM583.302 199.715l3.77-.31c.2 1.844.663 3.285 1.382 4.318.722 1.03 1.755 1.86 3.09 2.482 1.338.634 2.848.945 4.523.945 2.405 0 4.27-.528 5.603-1.587 1.328-1.062 1.997-2.437 1.997-4.128 0-.995-.24-1.856-.722-2.596-.48-.735-1.213-1.343-2.188-1.821-.974-.47-3.074-1.139-6.31-2.004-2.882-.778-4.923-1.556-6.142-2.333-1.213-.783-2.163-1.774-2.843-2.973-.671-1.203-1.008-2.56-1.008-4.075 0-2.72.974-4.945 2.922-6.67 1.954-1.729 4.58-2.594 7.881-2.594 2.275 0 4.26.404 5.968 1.208 1.701.81 3.023 1.964 3.96 3.47.945 1.502 1.447 3.28 1.518 5.319l-3.878.316c-.202-2.17-.926-3.775-2.177-4.818-1.25-1.046-3.002-1.569-5.26-1.569-2.294 0-4.046.46-5.248 1.388-1.208.924-1.813 2.116-1.813 3.59 0 1.356.44 2.41 1.327 3.16.876.746 2.856 1.503 5.935 2.27 3.013.76 5.129 1.412 6.347 1.967 1.86.86 3.265 1.99 4.223 3.39.956 1.393 1.43 3.068 1.43 5.009 0 1.927-.496 3.679-1.496 5.26-.996 1.583-2.355 2.785-4.07 3.616-1.722.818-3.79 1.232-6.206 1.232-3.78 0-6.787-1.025-9.027-3.09-2.238-2.057-3.406-4.852-3.488-8.372M613.819 176.945h4.03v33.659h-4.03zM630.288 196.78h10.454l-3.196-9.322c-.99-2.862-1.715-5.184-2.172-6.979a44.441 44.441 0 0 1-1.68 6.43zm-8.703 13.822 11.732-33.658h4.327l12.47 33.658h-4.618l-3.517-10.209h-12.861l-3.31 10.209zM653.245 210.602v-33.658h4.128l16.024 26.529v-26.529h3.873v33.658h-4.154l-15.998-26.488v26.488zM695.95 210.602v-33.658h4.029v13.822h15.863v-13.822h4.029v33.658h-4.03v-15.86H699.98v15.86zM727.434 176.945h4.03v33.659h-4.03zM737.186 199.715l3.77-.31c.207 1.844.663 3.285 1.388 4.318.717 1.03 1.75 1.86 3.084 2.482 1.338.634 2.849.945 4.529.945 2.405 0 4.27-.528 5.598-1.587 1.333-1.062 1.996-2.437 1.996-4.128 0-.995-.239-1.856-.727-2.596-.475-.735-1.208-1.343-2.177-1.821-.98-.47-3.079-1.139-6.315-2.004-2.882-.778-4.924-1.556-6.142-2.333-1.213-.783-2.158-1.774-2.838-2.973-.677-1.203-1.014-2.56-1.014-4.075 0-2.72.975-4.945 2.928-6.67 1.946-1.729 4.574-2.594 7.876-2.594 2.275 0 4.266.404 5.967 1.208 1.702.81 3.023 1.964 3.966 3.47.945 1.502 1.446 3.28 1.513 5.319l-3.873.316c-.207-2.17-.932-3.775-2.182-4.818-1.25-1.046-3.002-1.569-5.261-1.569-2.296 0-4.045.46-5.253 1.388-1.203.924-1.802 2.116-1.802 3.59 0 1.356.44 2.41 1.316 3.16.881.746 2.862 1.503 5.94 2.27 3.019.76 5.13 1.412 6.347 1.967 1.861.86 3.27 1.99 4.224 3.39.96 1.393 1.43 3.068 1.43 5.009 0 1.927-.496 3.679-1.491 5.26-1.001 1.583-2.36 2.785-4.075 3.616-1.717.818-3.785 1.232-6.206 1.232-3.775 0-6.782-1.025-9.028-3.09-2.232-2.057-3.405-4.852-3.488-8.372M774.768 210.602v-29.681h-10.052v-3.977h24.185v3.977h-10.103v29.681zM795.247 194.276c0 4.15 1.016 7.361 3.047 9.65 2.028 2.29 4.497 3.431 7.4 3.431 2.97 0 5.463-1.157 7.475-3.464 2.013-2.312 3.019-5.707 3.019-10.187 0-2.894-.52-5.474-1.55-7.757a9.836 9.836 0 0 0-3.61-4.188c-1.607-1.046-3.359-1.572-5.256-1.572-3.058 0-5.58 1.147-7.56 3.443-1.975 2.294-2.965 5.843-2.965 10.644m-4.133-.055c0-5.737 1.39-10.148 4.188-13.227 2.796-3.085 6.276-4.624 10.438-4.624 2.697 0 5.155.69 7.371 2.062 2.214 1.38 3.974 3.382 5.27 6.004 1.294 2.623 1.942 5.745 1.942 9.373 0 4.988-1.253 9.047-3.759 12.179-2.763 3.464-6.375 5.19-10.85 5.19-4.5 0-8.123-1.774-10.865-5.326-2.49-3.209-3.735-7.087-3.735-11.631M829.459 191.762h8.698c1.898 0 3.34-.207 4.32-.621a5.053 5.053 0 0 0 2.343-1.946c.576-.886.865-1.914.865-3.09 0-1.69-.549-3.023-1.653-3.992-1.105-.963-2.742-1.452-4.908-1.452h-9.665zm-4.035 18.841v-33.658h13.532c2.827 0 4.911.31 6.26.937 1.34.629 2.444 1.67 3.312 3.127.86 1.457 1.296 3.148 1.296 5.07 0 2.535-.736 4.59-2.198 6.166-1.468 1.564-3.594 2.57-6.387 2.997 1.118.626 1.975 1.263 2.564 1.906a23.733 23.733 0 0 1 3.186 4.297l5.343 9.158h-5.08l-4.09-6.989c-1.59-2.731-2.785-4.579-3.582-5.542-.799-.959-1.582-1.61-2.322-1.94-.754-.333-1.8-.503-3.149-.503h-4.65v14.974zM864.024 210.602v-14.257l-11.722-19.4h4.863l6.02 10.16a92.126 92.126 0 0 1 3.14 5.7c.902-1.763 2.012-3.743 3.345-5.952l5.945-9.909h4.64l-12.197 19.401v14.257zM895.234 210.602v-33.658h20.577v3.977h-16.548v10.42h14.286v3.977h-14.286v15.284zM923.987 194.276c0 4.15 1.016 7.361 3.047 9.65 2.028 2.29 4.497 3.431 7.4 3.431 2.97 0 5.458-1.157 7.475-3.464 2.012-2.312 3.018-5.707 3.018-10.187 0-2.894-.52-5.474-1.55-7.757a9.836 9.836 0 0 0-3.61-4.188 9.43 9.43 0 0 0-5.256-1.572c-3.057 0-5.58 1.147-7.56 3.443-1.974 2.294-2.964 5.843-2.964 10.644m-4.133-.055c0-5.737 1.396-10.148 4.188-13.227 2.796-3.085 6.275-4.624 10.443-4.624 2.692 0 5.15.69 7.363 2.062 2.217 1.38 3.977 3.382 5.272 6.004 1.295 2.623 1.943 5.745 1.943 9.373 0 4.988-1.253 9.047-3.759 12.179-2.763 3.464-6.376 5.19-10.85 5.19-4.5 0-8.123-1.774-10.865-5.326-2.496-3.209-3.735-7.087-3.735-11.631M974.058 176.945h4.03v19.446c0 3.262-.354 5.938-1.05 8.027-.7 2.09-1.969 3.738-3.813 4.95-1.848 1.208-4.197 1.808-7.043 1.808-4.013 0-7.023-1.083-9.02-3.254-1.996-2.177-2.996-6.02-2.996-11.53v-19.447h4.032v19.414c0 3.045.26 5.253.783 6.618.525 1.356 1.38 2.394 2.567 3.106 1.186.708 2.638 1.067 4.34 1.067 2.866 0 4.945-.736 6.235-2.204 1.293-1.467 1.935-4.329 1.935-8.587zM984.816 210.602v-33.658h4.127l16.03 26.529v-26.529h3.868v33.658h-4.154l-15.993-26.488v26.488zM1019.598 206.626h6.506c2.633 0 4.624-.388 5.978-1.163 1.36-.772 2.4-2.01 3.132-3.727.964-2.28 1.452-5.009 1.452-8.191 0-3.411-.515-6.092-1.545-8.046-1.027-1.948-2.338-3.257-3.952-3.915-1.083-.44-2.803-.664-5.163-.664h-6.408zm-4.035 3.976v-33.658h10.536c2.61 0 4.59.207 5.943.618 1.776.54 3.313 1.519 4.619 2.939 1.3 1.425 2.317 3.22 3.042 5.386.733 2.168 1.094 4.735 1.094 7.7 0 3.81-.616 7.05-1.85 9.705-1.24 2.654-2.825 4.536-4.765 5.646-1.933 1.11-4.468 1.664-7.6 1.664zM1051.778 196.78h10.456l-3.194-9.322c-.99-2.862-1.714-5.184-2.176-6.979a44.418 44.418 0 0 1-1.675 6.43zm-8.704 13.822 11.738-33.658h4.327l12.465 33.658h-4.619l-3.512-10.209h-12.866l-3.31 10.209zM1079.52 210.602v-29.681h-10.052v-3.977h24.184v3.977h-10.097v29.681zM1098.483 176.945h4.035v33.659h-4.035zM1112.586 194.276c0 4.15 1.017 7.361 3.042 9.65 2.028 2.29 4.497 3.431 7.406 3.431 2.97 0 5.458-1.157 7.47-3.464 2.017-2.312 3.023-5.707 3.023-10.187 0-2.894-.52-5.474-1.556-7.757a9.789 9.789 0 0 0-3.604-4.188c-1.606-1.046-3.358-1.572-5.261-1.572-3.058 0-5.575 1.147-7.555 3.443-1.975 2.294-2.965 5.843-2.965 10.644m-4.133-.055c0-5.737 1.391-10.148 4.189-13.227 2.795-3.085 6.27-4.624 10.437-4.624 2.697 0 5.15.69 7.371 2.062 2.214 1.38 3.974 3.382 5.27 6.004 1.29 2.623 1.937 5.745 1.937 9.373 0 4.988-1.247 9.047-3.758 12.179-2.758 3.464-6.376 5.19-10.846 5.19-4.5 0-8.128-1.774-10.865-5.326-2.495-3.209-3.735-7.087-3.735-11.631M1142.661 210.602v-33.658h4.128l16.025 26.529v-26.529h3.872v33.658h-4.154l-15.998-26.488v26.488zM342.096 111.437c-3.268-3.154-6.923-4.73-10.965-4.73-3.956 0-7.526 1.576-10.708 4.73-3.096 3.153-4.643 6.641-4.643 10.461 0 3.825 1.547 7.313 4.643 10.466 3.182 3.345 6.752 5.015 10.708 5.015 3.955 0 7.61-1.67 10.965-5.015 3.18-3.249 4.773-6.737 4.773-10.466 0-3.724-1.593-7.21-4.773-10.461m10.193 31.819c-6.108 6.596-13.29 9.893-21.543 9.893-8.516 0-15.741-3.297-21.674-9.893-5.678-6.114-8.515-13.09-8.515-20.925 0-7.55 3.007-14.525 9.03-20.928 6.19-6.596 13.243-9.893 21.159-9.893 8.857 0 16.253 3.297 22.188 9.893 5.418 6.116 8.128 13.092 8.128 20.928 0 7.74-2.925 14.713-8.773 20.925m28.639-50.023c-1.55.573-4.216.19-8-1.147-2.238-.764-5.721-1.388-10.449-1.863-3.785-.383-8.988-.717-15.61-1.004-6.45-.286-12.558-.382-18.319-.289-6.967.194-13.63.576-19.995 1.147-7.398.671-13.376 1.39-17.934 2.152-3.182.476-6.017 1.1-8.513 1.864-5.16 1.624-8.515 1.147-10.062-1.434-1.206-2.102-1.206-5.258 0-9.463 1.117-3.724 2.88-5.826 5.29-6.307-.863.194.945.29 5.42.29 3.435-.093 9.543-.526 18.316-1.293 8.943-.669 16.683-1.144 23.22-1.433 0-1.144-.044-2.387-.127-3.724 0-2.676.043-4.635.128-5.88-6.538.385-10.578.672-12.126.86-4.733.576-8.085 1.532-10.06 2.87-2.755 1.815-4.95 2.58-6.583 2.293-1.29-.191-2.795-1.242-4.513-3.156-1.29-2.007-1.895-3.963-1.807-5.877 0-1.622.602-3.39 1.807-5.304.943-1.048 1.245-3.39.903-7.02-.43-3.823-1.42-6.977-2.968-9.464-1.547-1.717-2.41-3.437-2.58-5.157-.26-2.103.385-4.587 1.935-7.457 1.033-1.908 2.45-3.15 4.258-3.726 1.805-.571 3.74-.523 5.803.146 1.892.668 3.785 1.05 5.677 1.144.688 0 2.965-.045 6.838-.141 3.008-.096 13.8-.29 32.382-.573 12.813-.192 21.068-.67 24.768-1.434 3.87-.764 6.363-.48 7.483.858 1.202 1.245.987 3.586-.645 7.026-2.153 4.969-4.173 8.027-6.063 9.174-1.377.764-3.655.81-6.84.14-5.245-1.144-14.363-1.813-27.346-2.004-12.73-.194-22.364.096-28.899.86.43 1.53.645 3.68.645 6.448-.088 2.675-.345 4.828-.775 6.45 11.868-.38 21.413-.618 28.639-.714 10.235-.194 20.686-.29 31.351-.29 5.243 0 7.995.051 8.255.147 1.805.669 1.935 3.058.388 7.164-1.55 4.112-3.013 6.692-4.388 7.74-1.29 1.054-3.267 1.245-5.933.576-2.41-.573-6.065-1.003-10.965-1.29 5.675.287 1.202.191-13.418-.289.087 1.436 0 3.49-.258 6.164a88.806 88.806 0 0 1-.517 3.729c3.958 0 10.19.048 18.706.14 8.512.099 15.395.144 20.643.144 5.158 0 8.555.29 10.188.86 2.925 1.054 3.443 3.395 1.55 7.026-3.183 5.925-6.15 9.365-8.9 10.32M462.07 45.356c-11.955.191-21.5 1.006-28.638 2.437.17 1.913.26 3.108.26 3.586.082 1.05.167 2.102.254 3.15 5.848-.86 12.559-1.382 20.126-1.576 6.62-.093 14.92 0 24.899.287 3.698.098 6.429.337 8.192.716 1.762.385 2.643-.19 2.643-1.72 0-1.526.043-2.96.13-4.3v-1.577c-7.658-.857-16.945-1.192-27.866-1.003m39.217 24.368c-2.063.671-4.646.623-7.74-.144-2.838-.86-8.426-1.529-16.769-2.007-7.57-.477-15.31-.714-23.22-.714-7.229 0-11.959.141-14.194.428-2.922.382-6.193 1.481-9.803 3.297-2.837 1.436-5.032 2.105-6.58 2.006-2.323-.19-4.128-1.765-5.418-4.727-.775-1.723-.817-3.87-.127-6.453 1.03-4.107 1.547-6.066 1.547-5.877.34-5.635.255-10.99-.257-16.054.082.669-.433-2.915-1.55-10.75-.515-3.44.085-5.973 1.807-7.597 1.373-1.338 3.395-2.007 6.063-2.007 3.955 0 6.448 1.194 7.483 3.583.427 1.245.73 4.635.903 10.177 8.682-1.146 18.96-1.72 30.83-1.72 5.333.096 13.849.385 25.544.863-.087-3.92.043-6.453.388-7.6.342-1.529 1.287-2.577 2.837-3.153 4.128-1.625 7.31-1.86 9.548-.717 1.893 1.147 2.75 3.201 2.578 6.164-.43 4.873-.56 11.326-.385 19.353 0 3.342.127 9.03.385 17.055.257 3.536-1.033 5.734-3.87 6.594m10.838 25.23c-1.463.764-3.57.764-6.32 0-3.443-1.054-8.86-2.102-16.256-3.156-8-1.049-15.31-1.622-21.931-1.72 0 1.242-.13 2.962-.388 5.16-.257 2.198.473 3.297 2.196 3.297 4.21.095 7.952.143 11.223.143 5.417-.093 8.342-.143 8.772-.143 3.18.095 5.718.024 7.61-.215 1.893-.24 3.656.55 5.288 2.365 2.665 2.293 4.128 4.491 4.385 6.593.088.86-.215 2.774-.9 5.734-.344 2.962-.475 6.381-.39 10.251.085 3.87.13 6.952.13 9.243 0 4.112-.387 6.737-1.16 7.884-.86 1.34-2.84 2.296-5.935 2.867-4.3.669-6.923-.189-7.868-2.58-.257-.67-.387-3.39-.387-8.17 0-2.96-.045-6.642-.13-11.038-.173-4.393-.258-6.973-.258-7.74-6.795-.571-14.838-.762-24.123-.574-8.343.096-14.793.385-19.35.86-7.484.959-12.859 1.723-16.127 2.294-3.612.669-6.407 1.436-8.385 2.293-5.333 1.53-8.815 1.34-10.45-.573-1.206-1.338-1.506-3.775-.9-7.31.685-4.489 2.19-7.454 4.512-8.887 1.29-.765 3.183-1.147 5.675-1.147 2.58.098 7.44-.236 14.581-1.004 7.395-.761 12.383-1.146 14.963-1.146 1.805 0 2.517-.55 2.13-1.649-.388-1.099-.582-3.13-.582-6.092a827.125 827.125 0 0 1-28.639 2.867c-6.45.576-10.28 1.006-11.483 1.293-6.278 1.335-10.06.905-11.35-1.293-.863-1.529-.645-4.488.645-8.884 1.717-3.823 3.61-6.07 5.678-6.737h5.027c4.645-.194 12.107-.648 22.385-1.362 10.275-.717 20.144-.98 29.605-.79 4.902-.094 12.428.05 22.576.43 9.288.286 16.943.334 22.963.143 4.818 0 8.17.525 10.063 1.579 1.893 1.144 2.32 2.912 1.29 5.303-2.84 6.403-5.633 10.273-8.385 11.61M650.55 71.587c-1.463 2.293-3.226 3.44-5.288 3.44-1.98 0-4.563-.478-7.74-1.434-1.811-.57-2.714-.331-2.714.717-.43 29.913-.45 48.69-.06 56.335.382 7.645-.882 12.28-3.807 13.901-2.15 1.628-4.433 2.342-6.838 2.15-2.583-.188-3.873-1.385-3.873-3.583v-15.337c0-30.863.064-53.248.191-67.152.13-13.904.2-23.054.2-27.452 0-4.776.6-8.12 1.802-10.034 1.375-2.198 3.743-2.915 7.098-2.15 2.925.669 4.9 2.102 5.93 4.303.95 1.91 1.162 4.634.65 8.17a146.105 146.105 0 0 0-.772 9.171c-.26 4.207-.39 9.463-.39 15.767 0 .959 1.266 1.15 3.806.574a93.679 93.679 0 0 1 8.061-1.434c4.473-.761 7.05-.427 7.74 1.004.43.86.17 2.678-.772 5.45-1.38 3.82-2.452 6.351-3.225 7.594M581.4 50.516c-4.043-4.489-8.813-6.737-14.318-6.737-5.418 0-10.148 2.248-14.191 6.737-3.955 4.303-5.933 9.272-5.933 14.91 0 5.348 1.978 10.272 5.933 14.761 4.128 4.78 8.86 7.167 14.19 7.167 5.418 0 10.194-2.386 14.319-7.167 3.955-4.489 5.938-9.413 5.938-14.761 0-5.638-1.983-10.607-5.938-14.91m10.193 41.282c-6.88 7.835-15.22 11.753-25.026 11.753-9.718 0-17.931-3.918-24.639-11.753-6.453-7.451-9.678-16.15-9.678-26.088 0-9.458 3.225-17.915 9.678-25.369 6.79-7.934 15.006-11.9 24.639-11.9 9.715 0 18.058 3.966 25.026 11.9 6.62 7.547 9.932 16.007 9.932 25.369 0 9.845-3.312 18.541-9.932 26.088M773.099 42.346c-.26 4.874-.385 10.703-.385 17.488 0 15.767.085 22.313.26 19.637-.26 4.59-1.595 8.123-4.003 10.605-1.802 1.913-4.042 2.87-6.707 2.87-2.753.097-4.128-1.002-4.128-3.298v-13.76c-3.183 0-5.805.095-7.87.286-2.41.29-4.773.72-7.09 1.288-3.616 1.245-6.368 1.58-8.261 1.003-2.323-.568-3.443-2.434-3.353-5.587.258-4.298.99-7.5 2.193-9.604 1.372-2.39 3.265-3.438 5.675-3.154 7.653.67 10.836.959 9.545.86 4.298.287 7.44.192 9.421-.286v-3.87c0-1.912.043-3.775.13-5.59-3.53 0-5.853.047-6.968.143-2.665.095-4.948.477-6.838 1.146-4.127 1.53-7.222 2.103-9.285 1.718-2.67-.475-3.963-2.387-3.873-5.731.258-4.874.943-8.17 2.063-9.89 1.29-2.1 3.695-3.154 7.228-3.154 7.308.573 10.315.812 9.03.717 3.695.286 6.445.241 8.253-.144.085-.953.13-1.956.13-3.01-.088-1.72-.13-2.675-.13-2.867 0-3.535.69-6.115 2.065-7.74 1.46-1.72 3.743-2.293 6.838-1.72 2.492.382 4.297 1.577 5.418 3.584 1.12 2.197 1.502 5.303 1.16 9.317-.6 10.511-.778 13.426-.518 8.743m-.512 79.84c.17 5.065.257 8.744.257 11.037 0 4.778-.257 7.693-.778 8.744-.687 1.147-2.622 1.911-5.8 2.294-4.215.477-6.755-.192-7.61-2.007-.26-.574-.39-2.915-.39-7.024 0-2.482.255-8.454.772-17.917.26-5.158 0-7.74-.772-7.74-8.088-.478-13.763-.717-17.03-.717-3.356 0-8.171.239-14.449.716-5.678.385-11.78 1.1-18.318 2.15-6.278 1.052-11.053 2.055-14.318 3.01-4.645 1.437-7.658 1.386-9.033-.143-1.203-1.242-1.46-3.918-.773-8.027.773-3.918 1.978-6.45 3.616-7.597 1.03-.764 2.705-1.149 5.027-1.149.863 0 6.793-.57 17.803-1.717 9.976-1.052 17.716-1.577 23.221-1.577 5.678 0 9.633.05 11.868.143 3.438.096 7.01.382 10.706.86 1.462.191 3.185-.048 5.165-.717 1.975-.668 4.338.192 7.09 2.58 2.413 2.198 3.828 4.014 4.258 5.447.26.765.218 2.485-.125 5.158-.43 4.398-.56 9.129-.387 14.193m-61.28-77.69c-3.268-3.535-7.31-5.303-12.129-5.303-4.815 0-8.77 1.768-11.865 5.303-2.838 3.25-4.258 7.072-4.258 11.468 0 4.586 1.42 8.555 4.258 11.897 3.095 3.631 7.05 5.447 11.865 5.447 4.818 0 8.86-1.816 12.128-5.447 3.096-3.44 4.646-7.406 4.646-11.897 0-4.396-1.55-8.219-4.646-11.468M721.5 78.181c-5.938 6.498-13.46 9.747-22.573 9.747-9.38 0-16.903-3.249-22.578-9.747-5.333-5.922-7.998-13.092-7.998-21.5 0-8.41 2.795-15.72 8.385-21.932 5.933-6.498 13.33-9.747 22.191-9.747 9.2 0 16.723 3.25 22.573 9.747 5.506 6.116 8.258 13.426 8.258 21.931 0 8.314-2.752 15.48-8.258 21.501M913.716 71.587c-1.462 2.293-3.225 3.44-5.287 3.44-1.98 0-4.558-.478-7.74-1.434-1.806-.57-2.708-.331-2.708.717-.43 29.913-.457 48.69-.066 56.335.387 7.645-.882 12.28-3.807 13.901-2.15 1.628-4.433 2.342-6.838 2.15-2.582-.188-3.867-1.385-3.867-3.583v-15.337c0-30.863.064-53.248.19-67.152.131-13.904.195-23.054.195-27.452 0-4.776.6-8.12 1.807-10.034 1.375-2.198 3.738-2.915 7.093-2.15 2.925.669 4.905 2.102 5.935 4.303.945 1.91 1.163 4.634.645 8.17a150.215 150.215 0 0 0-.772 9.171c-.26 4.207-.39 9.463-.39 15.767 0 .959 1.271 1.15 3.806.574a93.81 93.81 0 0 1 8.067-1.434c4.467-.761 7.05-.427 7.74 1.004.43.86.17 2.678-.777 5.45-1.375 3.82-2.453 6.351-3.226 7.594m-45.021 35.98c-.518 1.813-2.235 3.39-5.158 4.728-2.495 1.15-4.905.48-7.228-2.007-1.72-1.815-3.395-4.775-5.027-8.887-4.558-11.467-7.659-19.252-9.291-23.361-3.443-8.983-5.938-15.959-7.483-20.93-.517-1.72-1.072-2.485-1.675-2.291-.348.19-.86.953-1.55 2.29-3.01 5.925-6.665 14.194-10.965 24.8-4.903 11.659-8.6 20.161-11.093 25.513-1.81 3.822-4.003 5.64-6.58 5.45-1.72-.096-3.913-1.195-6.578-3.298-2.065-1.722-2.843-3.774-2.323-6.166.17-.953 1.115-3.106 2.835-6.448a800.851 800.851 0 0 0 17.673-37.268c6.02-13.667 9.033-21.647 9.033-23.94 0-4.107 1.03-6.973 3.095-8.598 1.46-1.147 3.783-1.768 6.968-1.863 3.613-.098 6.105.38 7.48 1.433 2.153 1.53 3.226 4.823 3.226 9.888 0 2.392 3.052 10.99 9.16 25.801 6.108 14.812 10.623 26.183 13.548 34.115 1.975 5.067 2.623 8.743 1.933 11.04M1036.79 44.495c-.26 5.83-.473 15.147-.643 27.952-.43 42.715-.56 61.397-.39 56.048-.257 7.74-1.332 12.662-3.225 14.761-2.15 1.625-4.343 2.437-6.578 2.437-2.492 0-3.742-1.147-3.742-3.44V72.447c-2.583.193-5.01.17-7.29-.07-2.282-.238-3.416.454-3.416 2.076-.602 43.387-.778 60.874-.52 52.465-.258 7.55-1.242 12.28-2.965 14.188-2.323 1.723-4.603 2.676-6.838 2.87-2.583.095-3.867-1.004-3.867-3.3V32.742c0-4.778.512-7.98 1.544-9.604 1.29-1.813 3.613-2.339 6.968-1.577 3.438.765 5.5 1.864 6.19 3.3.518 1.05.603 3.676.26 7.88-.26 2.867-.43 5.88-.514 9.034-.176 4.3-.258 9.173-.258 14.618 0 1.146.9 1.767 2.705 1.866-.342 0 2.323-.191 8-.574V32.742c0-4.68.56-7.834 1.68-9.458 1.116-1.723 3.353-2.294 6.709-1.723 3.525.576 5.717 1.864 6.577 3.87.603 1.434.685 4.348.255 8.744-.342 2.774-.56 6.214-.642 10.32m-45.925-2.72c-1.377 1.242-3.27 1.48-5.675.714-2.322-.67-4.563-1.097-6.71-1.288 1.805.191-.3.096-6.32-.289 2.065 6.596 5.672 17.296 10.835 32.108 4.818 13.57 7.783 22.268 8.903 26.088 2.235 7.934 3.395 12.855 3.483 14.766.084 2.294-.948 4.157-3.1 5.588-3.184 2.198-5.718 2.822-7.611 1.863-1.633-.86-2.923-2.866-3.868-6.017-1.377-4.874-4.433-14.478-9.16-28.814-4.215-12.898-6.838-21.358-7.87-25.369-6.62 19.399-11.053 32.49-13.289 39.275-2.232 6.785-4.555 12.47-6.967 17.055-1.975 3.92-5.028 4.924-9.156 3.01-4.132-1.813-5.505-4.584-4.127-8.313 6.45-16.912 11.138-29.478 14.06-37.699 5.16-14.33 8.686-25.56 10.578-33.682-4.73.096-7.783.191-9.163.284-1.202.191-3.782.672-7.74 1.434-2.663.576-4.685.241-6.06-1.004-1.893-1.622-2.105-4.68-.643-9.173 1.203-3.725 2.535-5.875 3.998-6.45h5.158c5.59 0 12.9.05 21.93.143 9.03.095 16.259.05 21.677-.144 6.45 0 10.015.146 10.705.433 1.462.669 1.593 2.962.39 6.878-1.38 4.398-2.795 7.265-4.258 8.603M1177.79 54.818c-1.114 1.529-2.746 2.29-4.9 2.29-1.72 0-4.472-.38-8.257-1.144-1.975-.382-2.965-.047-2.965 1.004-.43 8.409-.539 17.272-.321 26.59.212 9.316-.624 15.074-2.517 17.272-1.72 2.006-4.042 3.105-6.968 3.294-3.01.19-4.515-.762-4.515-2.864V31.597c0-4.683.39-7.597 1.163-8.744 1.115-1.72 3.737-2.293 7.87-1.72 3.608.573 5.76 1.624 6.448 3.153.515 1.147.472 3.632-.13 7.454a31.08 31.08 0 0 0-.382 4.874v5.014c0 1.627 1.393 2.01 4.188 1.15 2.795-.86 5.267-1.482 7.42-1.864 2.925-.574 4.857-.621 5.805-.144 1.375.86 1.635 2.963.772 6.307-.86 3.823-1.762 6.403-2.71 7.74m-17.798 86.002c-1.638 1.245-3.613 1.433-5.935.573-9.033-2.96-18.624-4.967-28.77-6.018-9.12-.955-17.932-1.05-26.445-.289-4.128.48-7.01.863-8.643 1.15-2.925.575-5.293 1.385-7.098 2.436-2.835 1.53-5.418.526-7.74-3.01-2.323-3.44-2.623-6.737-.903-9.893 1.633-2.96 2.535-7.069 2.713-12.325.082-2.29-.088-5.826-.52-10.607-.43-4.587.26-7.74 2.065-9.463 1.372-1.24 3.265-1.67 5.675-1.287 6.108 1.147 8.733 5.59 7.87 13.33-.86 7.74-1.202 12.758-1.03 15.048a263.04 263.04 0 0 1 18.834-1.863c5.502-.188 10.535-.188 15.093 0 3.525.29 10.363.958 20.513 2.01 7.995.764 12.598 1.146 13.803 1.146 4.816 0 7.958.621 9.418 1.864 1.463 1.337 1.245 3.44-.647 6.306-3.443 5.83-6.19 9.46-8.253 10.892m-30.961-53.893c-1.208.475-4.216 0-9.03-1.434-2.844-.862-7.914-1.433-15.224-1.722-6.708-.189-11.7-.093-14.968.289-3.613.573-6.06 1.051-7.35 1.433-.86.287-2.498 1.004-4.906 2.148-1.632.767-3.225.48-4.77-.858-1.55-1.338-2.628-3.2-3.228-5.59-.432-1.911-.124-4.252.906-7.024 1.375-3.535 2.147-7.501 2.322-11.897 0-5.635-.305-9.744-.905-12.327-.772-3.15-2.195-5.16-4.258-6.02-1.98-.863-2.965-2.485-2.965-4.874-.087-1.624.388-3.774 1.42-6.45 1.033-2.58 2.275-4.3 3.738-5.16 1.723-.956 4.297-1.242 7.74-.863 4.818.576 13.118.863 24.902.863 11.95 0 19.608-.335 22.963-1.004 4.467-.668 7.22-.238 8.253 1.29.86 1.338.43 3.632-1.285 6.88-2.323 4.68-4.263 7.502-5.808 8.455-1.29.863-3.483 1.006-6.578.43-2.582-.57-4.948-1.003-7.098-1.287-3.012-.478-5.508-.717-7.482-.717-3.783 0-7.31.096-10.576.287-3.53.286-6.455.669-8.773 1.146.603 3.632.858 8.123.773 13.474-.088 4.68-.43 9.22-1.03 13.618-.26 0 6.317.047 19.736.14 9.203 0 16.813-.334 22.833-1.003 4.903-.57 7.74-.096 8.518 1.433.685 1.245.04 3.92-1.94 8.03-2.235 4.97-4.216 7.74-5.93 8.314"/></svg>