<svg xmlns="http://www.w3.org/2000/svg" width="512px" height="189.621px" x="0px" y="0px" viewBox="0 0 135.46666 50.170558"><path fill="#8C9FA9" d="m15.06 16.93-6.842 7.775-1.29 7.822H3.155l1.378-7.91L0 16.977h4.486l2.356 4.264 3.82-4.31zM14.35 32.615l8.886-.045.446-3.154h-4.89l.444-3.11 4.845.089.576-3.245h-4.885l.533-2.975h5.109l.399-3.245h-9.018zM36.786 20.44s-.042-.977-2.531-1.155c0 0-1.865.045-2.22 1.512 0 0-.622 1.999 2.976 2.53 0 0 2.934.624 2.934 3.865 0 0-.223 2.753-2.09 4.088 0 0-1.734 1.511-4.753 1.556 0 0-2.445.4-5.332-1.513l2.042-3.067s1.513 2.177 3.734 1.69c0 0 2.043-.223 2.443-2.13 0 0 .488-1.778-3.112-2.046 0 0-3.11-.351-2.976-3.909 0 0 .311-2.934 1.999-3.91 0 0 1.333-1.375 4.132-1.421 0 0 2-.311 4.622 1.244z"/><path fill="#D71921" d="M53.67 3.423s.755-3.375 2.846-3.42c0 0 2.795-.235 2.042 3.375 0 0-1.01 3.01-1.467 4.714 0 0-.831 2.655-.936 2.944 0 0-.21 1.026-1.915 1 0 0-2.258 0-2.183-2.34.302-1.802.359-1.774.659-2.993zM64.48 3.446s.756-3.38 2.845-3.42c0 0 2.795-.236 2.045 3.373 0 0-1.012 3.01-1.467 4.712 0 0-.832 2.66-.937 2.947 0 0-.21 1.028-1.917 1.002 0 0-2.259-.003-2.178-2.34.299-1.807.356-1.774.655-2.995z"/><path fill="#231F20" d="m44.679 22.308 4.121.022s-.341-2.676 2.233-2.676c0 0 1.762-.209 1.84 2.231 0 0-.025 1.868-1.84 3.416l-3.467 3.467-4.65 4.121H55.578l.235-3.071h-5.278s2.785-2.285 3.862-3.543c0 0 2.444-1.894 2.338-4.468 0 0 .105-1.944-1.13-3.493 0 0-.973-1.736-4.1-1.71 0 0-3.229.027-4.884 2.206 0 0-1.103 1.419-1.941 3.498z"/><path fill="#8C9FA9" d="M76.078 31.13s0-2.792 2.586-2.741c0 0 1.969-.105 2.097 1.965 0 0-.312 2.587-2.661 2.587 0 0-1.738.129-2.022-1.812zM95.47 27.921l-.724 4.32s-1.651.749-3.798.724c0 0-3.57 0-5.64-2.585 0 0-1.522-1.992-1.551-4.32 0 0 .104-4.315 2.976-6.744 0 0 1.058-1.191 2.74-1.966 0 0 1.711-.904 3.516-.851 0 0 2.327-.075 3.929 1.03l-.54 3.701s-1.139-1.475-3.592-1.475c0 0-2.126-.024-3.908 2.015 0 0-1.551 1.605-1.42 3.65 0 0-.21 1.91 1.187 3.125 0 0 .649.7 2.744.827 0 0 3.254.127 4.082-1.45zM115.687 32.603l3.57-.023 3.153-9.414 2.433 9.414h1.419l5.584-9.543v9.566h3.596l.025-15.717h-3.644l-4.937 8.762-2.226-8.736h-3.387z"/><path fill="#005AA9" d="M36.13 39s-1.415-1.826 1.063-3.123c0 0 1.709-1.18 3.006.705 0 0 1.886 3.364 4.718 5.782 0 0 3.3 2.944 11.438 3.241 0 0 8.669.708 13.447-3.714 0 0 2.474-1.887 4.715-5.78 0 0 1.238-1.36 3.005-.059 0 0 1.889 1.359.118 3.716 0 0-2.118 3.3-6.071 6.309 0 0-5.01 4.127-15.095 4.069 0 0-6.545.529-12.795-3.303.001.001-4.42-2.063-7.549-7.843z"/><path fill="#231F20" d="m69.335 26.786 1.525-9.49h-4.97l-8.163 9.958-.387 2.479h7.678l-.361 3.284h3.668l.39-3.284 2.145-.05.362-2.897zm-3.735.044-3.523-.044 4.875-6.41z"/><path fill="#8C9FA9" d="M115.64 22.728c-.186-1.917-1.167-3.13-1.167-3.13-1.472-2.196-3.774-2.867-3.774-2.867-2.637-.852-5.17 0-5.17 0-3.54.645-6.361 4.83-6.361 4.83-1.37 1.76-1.37 4.553-1.37 4.553-.024 2.587 1.862 4.524 1.862 4.524 1.706 2.587 5.917 2.303 5.917 2.303 3.184-.026 5.434-1.604 5.434-1.604 1.68-1.084 3.283-3.647 3.283-3.647 1.658-2.716 1.345-4.962 1.345-4.962zm-5.741 5.065s-1.656 1.735-3.828 1.735c0 0-2.712.18-3.826-2.199 0 0-.336-.491-.387-2.245 0 0-.075-1.58 1.447-3.465 0 0 1.735-2.072 4.19-1.942 0 0 2.405.025 3.646 1.884 0 0 .595 1.088.619 2.255-.001 0 .255 1.938-1.861 3.977z"/></svg>